<svg width="34" height="13" viewBox="0 0 34 13" fill="none" xmlns="http://www.w3.org/2000/svg">
<path d="M32.4886 7.93064H1.5111C0.676595 7.93064 0 7.25405 0 6.41955C0 5.58504 0.676595 4.90845 1.5111 4.90845H32.4886C33.3231 4.90845 33.9997 5.58504 33.9997 6.41955C33.9997 7.25405 33.3231 7.93064 32.4886 7.93064Z" fill="#F4F4F4"/>
<path d="M27.5804 12.8389C27.1939 12.8389 26.8067 12.6912 26.5121 12.3961C25.9216 11.806 25.9216 10.8491 26.5121 10.2594L30.3518 6.41934L26.5121 2.57963C25.9216 1.98955 25.9216 1.03265 26.5121 0.442563C27.1018 -0.147521 28.0587 -0.147521 28.6488 0.442563L33.5572 5.35099C33.8405 5.63432 33.9999 6.01852 33.9999 6.41934C33.9999 6.82016 33.8405 7.20435 33.5572 7.48768L28.6488 12.3961C28.3541 12.6915 27.9669 12.8389 27.5804 12.8389Z" fill="#F4F4F4"/>
</svg>
